HIERARCHY
ROOT Hips
{
    OFFSET 0.000000 0.000000 0.000000
    CHANNELS 6 Xposition Yposition Zposition Zrotation Xrotation Yrotation
    JOINT Spine
    {
        OFFSET -0.000000 0.084000 0.000000
        CHANNELS 3 Zrotation Xrotation Yrotation
        JOINT Spine1
        {
            OFFSET -0.000000 0.216247 0.000000
            CHANNELS 3 Zrotation Xrotation Yrotation
            JOINT Neck
            {
                OFFSET -0.000000 0.215359 0.019578
                CHANNELS 3 Zrotation Xrotation Yrotation
                JOINT Head
                {
                    OFFSET -0.000000 0.143414 -0.020488
                    CHANNELS 3 Zrotation Xrotation Yrotation
                    End Site
                    {
                        OFFSET -0.000000 0.204877 0.000000
                    }
                }
            }
            JOINT LeftShoulder
            {
                OFFSET 0.040109 0.191272 -0.003631
                CHANNELS 3 Zrotation Xrotation Yrotation
                JOINT LeftArm
                {
                    OFFSET 0.138349 0.000000 0.000000
                    CHANNELS 3 Zrotation Xrotation Yrotation
                    JOINT LeftForeArm
                    {
                        OFFSET 0.335349 0.000000 0.000000
                        CHANNELS 3 Zrotation Xrotation Yrotation
                        JOINT LeftHand
                        {
                            OFFSET 0.276368 0.000000 0.000000
                            CHANNELS 3 Zrotation Xrotation Yrotation
                            End Site
                            {
                                OFFSET 0.153658 0.000000 0.000000
                            }
                        }
                    }
                }
            }
            JOINT RightShoulder
            {
                OFFSET -0.041533 0.191272 -0.003631
                CHANNELS 3 Zrotation Xrotation Yrotation
                JOINT RightArm
                {
                    OFFSET -0.138349 0.000000 0.000000
                    CHANNELS 3 Zrotation Xrotation Yrotation
                    JOINT RightForeArm
                    {
                        OFFSET -0.335349 0.000000 0.000000
                        CHANNELS 3 Zrotation Xrotation Yrotation
                        JOINT RightHand
                        {
                            OFFSET -0.276368 0.000000 0.000000
                            CHANNELS 3 Zrotation Xrotation Yrotation
                            End Site
                            {
                                OFFSET -0.153658 0.000000 0.000000
                            }
                        }
                    }
                }
            }
        }
    }
    JOINT LeftUpLeg
    {
        OFFSET 0.102438 0.000000 0.000000
        CHANNELS 3 Zrotation Xrotation Yrotation
        JOINT LeftLeg
        {
            OFFSET -0.000000 -0.442852 0.000000
            CHANNELS 3 Zrotation Xrotation Yrotation
            JOINT LeftFoot
            {
                OFFSET -0.000000 -0.461647 0.000000
                CHANNELS 3 Zrotation Xrotation Yrotation
                JOINT LeftToeBase
                {
                    OFFSET -0.000000 -0.066585 0.153658
                    CHANNELS 3 Zrotation Xrotation Yrotation
                    End Site
                    {
                        OFFSET -0.000000 0.000000 0.040975
                    }
                }
            }
        }
    }
    JOINT RightUpLeg
    {
        OFFSET -0.102438 0.000000 0.000000
        CHANNELS 3 Zrotation Xrotation Yrotation
        JOINT RightLeg
        {
            OFFSET -0.000000 -0.442852 0.000000
            CHANNELS 3 Zrotation Xrotation Yrotation
            JOINT RightFoot
            {
                OFFSET -0.000000 -0.461647 0.000000
                CHANNELS 3 Zrotation Xrotation Yrotation
                JOINT RightToeBase
                {
                    OFFSET -0.000000 -0.066585 0.153658
                    CHANNELS 3 Zrotation Xrotation Yrotation
                    End Site
                    {
                        OFFSET -0.000000 0.000000 0.040975
                    }
                }
            }
        }
    }
}
MOTION
Frames:    5
Frame Time:    0.010000
-0.525082    0.438667    0.153740    -2.441748    -7.057186    -9.191321    -0.351816    5.203737    1.939075    2.612392    -4.253896    0.738500    -7.927423    16.785490    1.469777    -0.023425    -3.817840    1.485933    9.983965    1.027085    3.714671    -8.583681    -9.041540    -1.133022    -1.725704    -9.073347    9.154902    21.566158    -8.362199    3.051360    -14.740289    1.233349    8.748685    12.289403    -20.110954    -3.756583    -1.429021    -1.645951    -2.081603    -35.387150    -4.046202    7.440784    142.484283    -64.458870    125.636818    -127.324280    65.098206    113.173698    0.401537    -14.724304    2.201971    0.000000    0.000000    0.000000    176.229904    -71.866249    176.330902    126.864281    76.533051    -137.341599    -14.853093    -7.448598    0.187346    0.000000    0.000000    0.000000    
-0.525085    0.438711    0.153799    -2.438138    -7.058346    -9.189188    -0.349508    5.191360    1.920830    2.605394    -4.270068    0.732567    -8.002116    16.603628    1.447081    0.087817    -3.673428    1.495181    9.983198    0.958836    3.733562    -8.576474    -9.019390    -1.142774    -1.742634    -9.112232    9.142069    21.798178    -8.385232    3.095669    -14.766771    1.196276    8.728148    12.370404    -20.047150    -3.699902    -1.445977    -1.641537    -2.011979    -35.406208    -4.053594    7.475194    142.501801    -64.468765    125.652451    -127.344353    65.100800    113.186226    0.369386    -14.737191    2.169144    0.000000    0.000000    0.000000    176.218857    -71.867218    176.326889    126.893654    76.528465    -137.367279    -14.854889    -7.460356    0.187220    0.000000    0.000000    0.000000    
-0.525088    0.438752    0.153857    -2.434266    -7.060916    -9.186602    -0.348656    5.176918    1.901528    2.600475    -4.278601    0.726244    -8.081082    16.423183    1.424138    0.204414    -3.534006    1.504948    9.983444    0.888782    3.754149    -8.570391    -8.995760    -1.153138    -1.759650    -9.149251    9.132389    22.023294    -8.407234    3.135364    -14.795485    1.158020    8.705961    12.453525    -19.983437    -3.640115    -1.465440    -1.639480    -1.941687    -35.426098    -4.062345    7.506159    142.519241    -64.480026    125.668068    -127.365059    65.103493    113.198181    0.344423    -14.748621    2.138503    0.000000    0.000000    0.000000    176.207993    -71.869080    176.323761    126.923042    76.523796    -137.392838    -14.853404    -7.471490    0.186080    0.000000    0.000000    0.000000    
-0.525094    0.438785    0.153913    -2.431658    -7.066638    -9.184242    -0.349596    5.160121    1.882509    2.599129    -4.276645    0.719854    -8.160857    16.253689    1.401448    0.322130    -3.410673    1.514326    9.983658    0.823097    3.773333    -8.563804    -8.975781    -1.163207    -1.776221    -9.177356    9.129082    22.211258    -8.423167    3.164601    -14.824980    1.120531    8.683016    12.534842    -19.924395    -3.579107    -1.485241    -1.639410    -1.871337    -35.449425    -4.072402    7.534448    142.535919    -64.493103    125.681747    -127.388062    65.106514    113.210960    0.324635    -14.759724    2.112519    0.000000    0.000000    0.000000    176.195892    -71.873466    176.319229    126.951546    76.518524    -137.417282    -14.850702    -7.481794    0.183748    0.000000    0.000000    0.000000    
-0.525104    0.438809    0.153968    -2.431091    -7.076895    -9.183079    -0.352753    5.140610    1.865273    2.601686    -4.264777    0.713820    -8.234137    16.108690    1.379740    0.431430    -3.314262    1.521476    9.983339    0.768114    3.784942    -8.555683    -8.962687    -1.169229    -1.790524    -9.197081    9.132282    22.341158    -8.434053    3.185156    -14.851541    1.089316    8.663566    12.607486    -19.875900    -3.520842    -1.502516    -1.638905    -1.803079    -35.476429    -4.082291    7.562603    142.549500    -64.508247    125.691284    -127.415184    65.109978    113.226807    0.309196    -14.769886    2.092679    0.000000    0.000000    0.000000    176.180283    -71.881691    176.311020    126.977104    76.512085    -137.438141    -14.849980    -7.491271    0.180654    0.000000    0.000000    0.000000    
